<svg width="24" height="24" viewBox="0 0 24 24" fill="none" xmlns="http://www.w3.org/2000/svg">
<path d="M12 0C5.39209 0 0 5.39301 0 12C0 18.6079 5.39301 24 12 24C18.6079 24 24 18.607 24 12C24 5.39209 18.607 0 12 0ZM12 22.5938C6.15857 22.5938 1.40625 17.8414 1.40625 12C1.40625 6.15857 6.15857 1.40625 12 1.40625C17.8414 1.40625 22.5938 6.15857 22.5938 12C22.5938 17.8414 17.8414 22.5938 12 22.5938Z" fill="#333333"/>
<path d="M8.48438 7.07812H18.3281V8.48438H8.48438V7.07812Z" fill="#333333"/>
<path d="M5.67188 7.07812H7.07812V8.48438H5.67188V7.07812Z" fill="#333333"/>
<path d="M8.48438 9.89062H18.3281V11.2969H8.48438V9.89062Z" fill="#333333"/>
<path d="M5.67188 9.89062H7.07812V11.2969H5.67188V9.89062Z" fill="#333333"/>
<path d="M8.48438 12.7031H18.3281V14.1094H8.48438V12.7031Z" fill="#333333"/>
<path d="M5.67188 12.7031H7.07812V14.1094H5.67188V12.7031Z" fill="#333333"/>
<path d="M8.48438 15.5156H18.3281V16.9219H8.48438V15.5156Z" fill="#333333"/>
<path d="M5.67188 15.5156H7.07812V16.9219H5.67188V15.5156Z" fill="#333333"/>
</svg>
