<svg width="24" height="24" viewBox="0 0 24 24" fill="none" xmlns="http://www.w3.org/2000/svg">
<path d="M7.875 19.125H13.125V21.375H7.875V19.125Z" fill="#333333"/>
<path d="M15.375 22.3447L17.0947 20.625H15.375V22.3447Z" fill="#333333"/>
<path d="M18.375 14.625H19.875V16.125H18.375V14.625Z" fill="#333333"/>
<path d="M9.75 7.875C9.543 7.875 9.375 8.043 9.375 8.25V8.625H14.625V8.25C14.625 8.043 14.457 7.875 14.25 7.875H9.75Z" fill="#333333"/>
<path d="M6 8.625H8.625V8.25C8.625 7.62975 9.12975 7.125 9.75 7.125H14.25C14.8702 7.125 15.375 7.62975 15.375 8.25V8.625H18C18.207 8.625 18.375 8.457 18.375 8.25V1.5C18.375 1.293 18.207 1.125 18 1.125H6C5.793 1.125 5.625 1.293 5.625 1.5V8.25C5.625 8.457 5.793 8.625 6 8.625ZM16.875 1.875H17.625V2.625H16.875V1.875ZM15.375 1.875H16.125V2.625H15.375V1.875ZM13.875 1.875H14.625V2.625H13.875V1.875Z" fill="#333333"/>
<path d="M4.125 14.625H5.625V16.125H4.125V14.625Z" fill="#333333"/>
<path d="M4.125 12.375H19.875V13.875H4.125V12.375Z" fill="#333333"/>
<path d="M1.125 15C1.125 15.6202 1.62975 16.125 2.25 16.125H3.375V12.375H1.125V15Z" fill="#333333"/>
<path d="M6.375 22.875H14.625V19.875H17.625V14.625H6.375V22.875ZM15.375 19.125H14.625V18.375H15.375V19.125ZM16.875 19.125H16.125V18.375H16.875V19.125ZM8.625 15.375H16.875V16.125H8.625V15.375ZM7.125 15.375H7.875V16.125H7.125V15.375ZM7.125 16.875H16.875V17.625H7.125V16.875ZM7.125 18.375H13.875V22.125H7.125V18.375Z" fill="#333333"/>
<path d="M21.75 1.875H19.125V8.25C19.125 8.87025 18.6203 9.375 18 9.375H6C5.37975 9.375 4.875 8.87025 4.875 8.25V1.875H2.25C1.62975 1.875 1.125 2.37975 1.125 3V11.625H22.875V3C22.875 2.37975 22.3703 1.875 21.75 1.875ZM3.75 7.5H2.25V6H3.75V7.5ZM3.75 4.5H2.25V3H3.75V4.5ZM22.125 10.875H21.375V10.125H22.125V10.875ZM22.125 9.375H21.375V8.625H22.125V9.375ZM22.125 7.875H21.375V7.125H22.125V7.875Z" fill="#333333"/>
<path d="M20.625 16.125H21.75C22.3702 16.125 22.875 15.6202 22.875 15V12.375H20.625V16.125Z" fill="#333333"/>
</svg>
