<svg viewBox="0 0 98.04 98" xmlns="http://www.w3.org/2000/svg"><g fill="#333"><path d="m1.24 94.54a4.49 4.49 0 0 0 4.51 4.46h58a4.49 4.49 0 0 0 4.5-4.46v-4.41h-67z" transform="translate(-1.24 -1)"/><path d="m.09 71.31h66.85v8.91h-66.85z"/><g transform="translate(-1.24 -1)"><path d="m1.24 63.35h67c-.01-35.66-67-35.66-67 0z"/><path d="m77 19.05v-18.05h-8.77v18.05h-22.15l1.33 10.43c7.62 2.09 14.76 5.88 19 10.07 6.42 6.33 10.83 12.88 10.83 23.57v35.88h7.4a7.37 7.37 0 0 0 7.27-6.51l7.35-73.44z"/></g></g></svg>