<svg width="24" height="24" viewBox="0 0 24 24" fill="none" xmlns="http://www.w3.org/2000/svg">
<path d="M12.9992 17.6878C16.0736 17.6878 18.5751 15.1872 18.5751 12.1128C18.5751 9.03839 16.0737 6.53658 12.9992 6.53658C9.92501 6.53658 7.42383 9.03799 7.42383 12.1128C7.42383 15.1872 9.92461 17.6878 12.9992 17.6878Z" fill="#333333"/>
<path d="M12.9983 19.1844C16.9044 19.1844 20.0698 16.0181 20.0698 12.1129C20.0698 8.20665 16.9043 5.041 12.9983 5.041C9.09264 5.041 5.92676 8.20665 5.92676 12.1129C5.92676 16.0181 9.09264 19.1844 12.9983 19.1844ZM12.9983 6.12444C16.2999 6.12444 18.9867 8.81137 18.9867 12.1129C18.9867 15.4145 16.3 18.1009 12.9983 18.1009C9.69665 18.1009 7.01028 15.4146 7.01028 12.1129C7.01028 8.81137 9.69665 6.12444 12.9983 6.12444Z" fill="#333333"/>
<path d="M23.9997 19.8423L23.587 3.97034C23.587 3.62858 23.3099 3.35141 22.9681 3.35141C22.8767 3.35141 22.7908 3.37236 22.7131 3.40838V3.40251C22.7131 3.40251 22.697 3.41283 22.674 3.42854C22.6148 3.46123 22.5616 3.50146 22.5156 3.55066C22.0627 3.92241 20.6186 5.43759 20.4977 7.48576C20.3143 10.6099 21.8318 11.8751 22.3488 13.034L21.9362 19.842C21.9362 20.1837 22.626 20.4609 22.9677 20.4609C23.3099 20.4612 23.9997 20.1841 23.9997 19.8423Z" fill="#333333"/>
<path d="M1.08027 10.1731L2.14839 10.7067C2.27011 10.7677 2.40429 10.8122 2.5445 10.8453L2.13189 20.1298C2.13189 20.4166 2.82191 20.6487 3.16343 20.6487C3.50511 20.6487 4.19497 20.4166 4.19497 20.1298L3.78236 10.7978C3.92765 10.752 4.06762 10.6963 4.19013 10.6213L4.98149 10.1394C5.55249 9.79104 5.9828 9.02492 5.9828 8.356V4.19601C5.9828 3.85426 5.70555 3.57709 5.36387 3.57709C5.02235 3.57709 4.74495 3.85426 4.74495 4.19601V7.9433H4.4012V4.19601C4.4012 3.85426 4.12396 3.57709 3.78228 3.57709C3.44076 3.57709 3.16335 3.85426 3.16335 4.19601V7.9433H2.81842V4.19601C2.81842 3.85426 2.54117 3.57709 2.19949 3.57709C1.85797 3.57709 1.58056 3.85426 1.58056 4.19601V7.9433H1.23785V4.32972C1.23785 3.98804 0.960606 3.71079 0.618927 3.71079C0.277406 3.71079 0 3.98804 0 4.32972V8.42512C0 9.11347 0.464592 9.86531 1.08027 10.1731Z" fill="#333333"/>
</svg>
