<svg viewBox="0 0 99 99.01" xmlns="http://www.w3.org/2000/svg"><g fill="#bdbdbd" transform="translate(0 -.5)"><path d="m42.43 9.4v31.8h31.8a33.61 33.61 0 0 0 -31.8-31.8z"/><path d="m67.12 51.77h-32.76l-23.21 23.17a33.53 33.53 0 0 0 56-23.17z"/><path d="m31.82 16.46a33.55 33.55 0 0 0 -23.17 56l23.17-23.23z"/><path d="m84.85 16.4h11.66l-13.42-13.4v11.65a1.78 1.78 0 0 0 1.76 1.75z"/><path d="m79.51 67.7a12.39 12.39 0 1 0 8.75 3.63 12.41 12.41 0 0 0 -8.75-3.63zm-2.24 18.91a1.77 1.77 0 0 1 -1.25.52 1.69 1.69 0 0 1 -1.25-.52l-5.31-5.3 2.54-2.5 4 4.11 9.35-9.36 2.51 2.49z"/><path d="m84.85 20a5.32 5.32 0 0 1 -5.34-5.3v-14.2h-42.39a1.76 1.76 0 0 0 -1.25.5 1.81 1.81 0 0 0 -.48 1.25v46h33.61a1.76 1.76 0 0 1 1.24.51 1.69 1.69 0 0 1 .47 1.24 37.13 37.13 0 0 1 -35.32 37v10.7a1.81 1.81 0 0 0 .52 1.3 1.79 1.79 0 0 0 1.25.52h60.08a1.77 1.77 0 0 0 1.76-1.76v-77.76zm-44.2 24.7a1.76 1.76 0 0 1 -1.76-1.77v-35.36a1.76 1.76 0 0 1 1.76-1.77 37.16 37.16 0 0 1 37.13 37.13 1.74 1.74 0 0 1 -1.78 1.77zm38.86 51.3a15.94 15.94 0 1 1 11.28-4.7 15.94 15.94 0 0 1 -11.28 4.7zm15.95-44.2h-14.14v-3.59h14.14zm0-10.61h-14.14v-3.56h14.14zm0-10.61h-14.14v-3.58h14.14z"/></g></svg>