<svg width="20" height="20" viewBox="0 0 20 20" fill="none" xmlns="http://www.w3.org/2000/svg">
<path fill-rule="evenodd" clip-rule="evenodd" d="M19.12 1.59999C19.12 0.937252 18.5827 0.399994 17.92 0.399994H3.91997C3.25722 0.399994 2.71997 0.937252 2.71997 1.59999V2.19999C2.71997 2.42091 2.89905 2.59999 3.11997 2.59999H3.88477C4.21614 2.59999 4.48477 2.86862 4.48477 3.19999C4.48477 3.53136 4.21614 3.79999 3.88477 3.79999H1.48477C1.15339 3.79999 0.884766 4.06862 0.884766 4.39999C0.884766 4.73136 1.15339 4.99999 1.48477 4.99999H2.31997C2.54088 4.99999 2.71997 5.17908 2.71997 5.39999V8.59999C2.71997 8.82091 2.89905 8.99999 3.11997 8.99999H3.88477C4.21614 8.99999 4.48477 9.26862 4.48477 9.59999C4.48477 9.93136 4.21614 10.2 3.88477 10.2H1.48477C1.15339 10.2 0.884766 10.4686 0.884766 10.8C0.884766 11.1314 1.15339 11.4 1.48477 11.4H2.31997C2.54088 11.4 2.71997 11.5791 2.71997 11.8V15C2.71997 15.2209 2.89905 15.4 3.11997 15.4H3.88477C4.21614 15.4 4.48477 15.6686 4.48477 16C4.48477 16.3314 4.21614 16.6 3.88477 16.6H1.48477C1.15339 16.6 0.884766 16.8686 0.884766 17.2C0.884766 17.5314 1.15339 17.8 1.48477 17.8H2.31997C2.54088 17.8 2.71997 17.9791 2.71997 18.2V18.4C2.71997 19.0627 3.25722 19.6 3.91997 19.6H17.92C18.5827 19.6 19.12 19.0627 19.12 18.4V1.59999ZM9.5082 8.576C9.36757 8.64184 9.27775 8.78312 9.2778 8.9384V14.4C9.2778 14.7314 9.00917 15 8.6778 15C8.34643 15 8.0778 14.7314 8.0778 14.4V8.94C8.07786 8.78472 7.98804 8.64344 7.8474 8.5776C7.15825 8.25435 6.71871 7.56119 6.7202 6.8V5.76C6.7202 5.05976 7.09378 4.41271 7.7002 4.06259C8.30663 3.71247 9.05378 3.71247 9.6602 4.06259C10.2666 4.41271 10.6402 5.05976 10.6402 5.76V6.8C10.6392 7.56143 10.198 8.25361 9.5082 8.576ZM15.1766 9.24C16.2458 8.80325 16.9371 7.75481 16.9174 6.6V4.4C16.9174 4.06862 16.6488 3.8 16.3174 3.8C15.986 3.8 15.7174 4.06862 15.7174 4.4V6.6C15.7225 7.03713 15.5595 7.45953 15.2622 7.78C15.2057 7.83926 15.1189 7.85813 15.0429 7.82764C14.9669 7.79715 14.9172 7.72345 14.9174 7.6416V4.4C14.9174 4.06862 14.6488 3.8 14.3174 3.8C13.986 3.8 13.7174 4.06862 13.7174 4.4V7.6416C13.7176 7.72345 13.6679 7.79715 13.5919 7.82764C13.5159 7.85813 13.4291 7.83926 13.3726 7.78C13.0756 7.45931 12.9127 7.03706 12.9174 6.6V4.4C12.9174 4.06862 12.6488 3.8 12.3174 3.8C11.986 3.8 11.7174 4.06862 11.7174 4.4V6.6032C11.6978 7.7582 12.3895 8.80671 13.459 9.2432C13.6143 9.302 13.7172 9.45069 13.7174 9.6168V14.4C13.7174 14.7314 13.986 15 14.3174 15C14.6488 15 14.9174 14.7314 14.9174 14.4V9.6136C14.9177 9.44729 15.0209 9.29854 15.1766 9.24Z" fill="#333333"/>
</svg>
