<svg width="42" height="42" viewBox="0 0 42 42" fill="none" xmlns="http://www.w3.org/2000/svg">
<g clip-path="url(#clip0)">
<path d="M15.3942 18.762L20.5054 21.0064C20.9096 21.1831 21.3683 21.1831 21.7725 21.0064L26.8838 18.762C27.1738 18.6347 27.3614 18.346 27.3614 18.027C27.3614 17.7079 27.1738 17.4192 26.8838 17.2919L21.7747 15.0491C21.3704 14.8725 20.9118 14.8725 20.5076 15.0491L15.3952 17.2903C15.1049 17.4174 14.917 17.7063 14.917 18.0256C14.917 18.3449 15.1049 18.6338 15.3952 18.7609L15.3942 18.762Z" fill="#0056BA"/>
<path d="M26.8847 20.1932L26.2257 19.9344C25.9574 19.8289 25.6451 19.9394 25.528 20.1813C25.411 20.4231 25.5336 20.7046 25.8019 20.8101L25.9031 20.8497L21.3519 22.6336C21.2169 22.6874 21.0631 22.6874 20.9281 22.6336L16.3764 20.8497L16.4781 20.8101C16.6517 20.7419 16.7716 20.5954 16.7929 20.4258C16.8141 20.2562 16.7333 20.0893 16.581 19.9879C16.4286 19.8866 16.2279 19.8662 16.0543 19.9344L15.3953 20.1927C15.1049 20.3063 14.917 20.5644 14.917 20.8497C14.917 21.1351 15.1049 21.3932 15.3953 21.5068L20.5043 23.5094C20.9085 23.6672 21.3672 23.6672 21.7715 23.5094L26.8832 21.5073C27.1735 21.3937 27.3614 21.1356 27.3614 20.8502C27.3614 20.5649 27.1735 20.3068 26.8832 20.1932H26.8847Z" fill="#0056BA"/>
<path d="M26.8862 23.9251L26.2271 23.6677C25.9588 23.5623 25.6464 23.6728 25.5293 23.9146C25.4123 24.1564 25.5349 24.438 25.8032 24.5435L25.9044 24.5831L21.3527 26.367C21.2176 26.4201 21.064 26.4201 20.9288 26.367L16.3766 24.5831L16.4783 24.5458C16.6519 24.4776 16.7719 24.3311 16.7931 24.1615C16.8143 23.9919 16.7335 23.825 16.5812 23.7237C16.4288 23.6223 16.228 23.6019 16.0544 23.6701L15.3953 23.928C15.1049 24.0416 14.917 24.2997 14.917 24.585C14.917 24.8703 15.1049 25.1284 15.3953 25.242L20.505 27.2427C20.9093 27.4006 21.368 27.4006 21.7723 27.2427L26.8825 25.2406C27.1732 25.1271 27.3614 24.8689 27.3614 24.5833C27.3614 24.2978 27.1732 24.0395 26.8825 23.9261L26.8862 23.9251Z" fill="#0056BA"/>
</g>
<circle opacity="0.3" cx="21" cy="21" r="21" fill="#CCDCEF"/>
<defs>
<clipPath id="clip0">
<rect width="28" height="28" fill="white" transform="translate(7.25 7.25)"/>
</clipPath>
</defs>
</svg>
