<svg width="219" height="219" viewBox="0 0 219 219" fill="none" xmlns="http://www.w3.org/2000/svg">
<g filter="url(#filter0_d)">
<path d="M109.5 207C163.348 207 207 163.348 207 109.5C207 55.6522 163.348 12 109.5 12C55.6522 12 12 55.6522 12 109.5C12 163.348 55.6522 207 109.5 207Z" fill="white"/>
</g>
<path d="M112.884 188.614C156.577 188.614 191.997 153.194 191.997 109.501C191.997 65.8078 156.577 30.3877 112.884 30.3877C69.1907 30.3877 33.7705 65.8078 33.7705 109.501C33.7705 153.194 69.1907 188.614 112.884 188.614Z" fill="#FFC107" fill-opacity="0.7"/>
<path d="M104.499 141.273C103.1 141.276 101.734 140.846 100.589 140.04L73.6079 121.16C72.4588 120.356 71.676 119.13 71.4316 117.749C71.1871 116.368 71.5012 114.947 72.3046 113.798C73.108 112.649 74.335 111.866 75.7156 111.622C77.0962 111.377 78.5173 111.691 79.6664 112.495L103.654 129.297L142.858 77.1651C143.274 76.6078 143.797 76.1378 144.394 75.7821C144.992 75.4265 145.655 75.1921 146.343 75.0923C147.032 74.9926 147.733 75.0294 148.407 75.2007C149.082 75.372 149.715 75.6745 150.273 76.0908C150.83 76.5071 151.3 77.0291 151.656 77.6271C152.011 78.225 152.246 78.8871 152.346 79.5756C152.445 80.2641 152.409 80.9656 152.237 81.6398C152.066 82.3141 151.763 82.9481 151.347 83.5054L109.924 138.701C109.279 139.519 108.453 140.176 107.512 140.622C106.572 141.068 105.54 141.291 104.499 141.273Z" fill="white"/>
<defs>
<filter id="filter0_d" x="0" y="0" width="219" height="219" filterUnits="userSpaceOnUse" color-interpolation-filters="sRGB">
<feFlood flood-opacity="0" result="BackgroundImageFix"/>
<feColorMatrix in="SourceAlpha" type="matrix" values="0 0 0 0 0 0 0 0 0 0 0 0 0 0 0 0 0 0 127 0"/>
<feOffset/>
<feGaussianBlur stdDeviation="6"/>
<feColorMatrix type="matrix" values="0 0 0 0 0 0 0 0 0 0 0 0 0 0 0 0 0 0 0.12 0"/>
<feBlend mode="normal" in2="BackgroundImageFix" result="effect1_dropShadow"/>
<feBlend mode="normal" in="SourceGraphic" in2="effect1_dropShadow" result="shape"/>
</filter>
</defs>
</svg>
